<svg xmlns="http://www.w3.org/2000/svg" viewBox="0 0 640 480">
  <path fill="#EE1C25" d="M0 0h640v480H0z"/>
  <g fill="#FFDE00">
    <path d="M120 96 134.6 141.8 183.6 141.8 143.5 168.2 158.1 214 120 187.6 81.9 214 96.5 168.2 56.4 141.8 105.4 141.8z"/>
    <path d="m240 72 3.7 11.4h12l-9.7 7 3.7 11.4-9.7-7.1-9.7 7.1 3.7-11.4-9.7-7h12z"/>
    <path d="m280 120 3.7 11.4h12l-9.7 7 3.7 11.4-9.7-7.1-9.7 7.1 3.7-11.4-9.7-7h12z"/>
    <path d="m280 192 3.7 11.4h12l-9.7 7 3.7 11.4-9.7-7.1-9.7 7.1 3.7-11.4-9.7-7h12z"/>
    <path d="m240 240 3.7 11.4h12l-9.7 7 3.7 11.4-9.7-7.1-9.7 7.1 3.7-11.4-9.7-7h12z"/>
  </g>
</svg>
